<svg version="1.1" xmlns="http://www.w3.org/2000/svg" viewBox="0 0 604.7142857142856 385.7142857142858" width="604.7142857142856" height="385.7142857142858">
  <!-- svg-source:excalidraw -->
  
  <defs>
    <style>
      @font-face {
        font-family: "Virgil";
        src: url("https://excalidraw.com/Virgil.woff2");
      }
      @font-face {
        font-family: "Cascadia";
        src: url("https://excalidraw.com/Cascadia.woff2");
      }
    </style>
  </defs>
  <g stroke-linecap="round" transform="translate(20 113.99999999999955) rotate(0 184.50000000000003 115)"><path d="M0 0 C122.18 0, 244.36 0, 369 0 M0 0 C139.7 0, 279.39 0, 369 0 M369 0 C369 53.9, 369 107.79, 369 230 M369 0 C369 49.93, 369 99.86, 369 230 M369 230 C264.16 230, 159.32 230, 0 230 M369 230 C275.46 230, 181.92 230, 0 230 M0 230 C0 166.06, 0 102.12, 0 0 M0 230 C0 170.03, 0 110.06, 0 0" stroke="#000000" stroke-width="4" fill="none"></path></g><g stroke-linecap="round"><g transform="translate(20 114) rotate(0 85.7142857142857 -38.57142857142867)"><path d="M0 0 C28.57 -12.86, 142.86 -64.29, 171.43 -77.14 M0 0 C28.57 -12.86, 142.86 -64.29, 171.43 -77.14" stroke="#000000" stroke-width="4" fill="none"></path></g></g><g stroke-linecap="round"><g transform="translate(388.5714285714285 114) rotate(0 86.42857142857139 -39.28571428571445)"><path d="M0 0 C28.81 -13.1, 144.05 -65.48, 172.86 -78.57 M0 0 C28.81 -13.1, 144.05 -65.48, 172.86 -78.57" stroke="#000000" stroke-width="4" fill="none"></path></g></g><g stroke-linecap="round"><g transform="translate(388.5714285714285 343.99999999999955) rotate(0 86.07142857142856 -39.28571428571422)"><path d="M0 0 C28.69 -13.1, 143.45 -65.48, 172.14 -78.57 M0 0 C28.69 -13.1, 143.45 -65.48, 172.14 -78.57" stroke="#000000" stroke-width="4" fill="none"></path></g></g><g stroke-linecap="round"><g transform="translate(20.714285714285722 343.28571428571377) rotate(0 85 -38.92857142857133)"><path d="M0 0 C28.33 -12.98, 141.67 -64.88, 170 -77.86" stroke="#000000" stroke-width="4.5" fill="none" stroke-dasharray="8 12"></path></g></g><g stroke-linecap="round"><g transform="translate(192.14285714285705 264.7142857142853) rotate(0 -0.7142857142856656 -113.57142857142844)"><path d="M0 0 C-0.24 -37.86, -1.19 -189.29, -1.43 -227.14" stroke="#000000" stroke-width="4.5" fill="none" stroke-dasharray="8 12"></path></g></g><g stroke-linecap="round"><g transform="translate(192.14285714285705 264.7142857142853) rotate(0 184.28571428571428 0)"><path d="M0 0 C61.43 0, 307.14 0, 368.57 0" stroke="#000000" stroke-width="4.5" fill="none" stroke-dasharray="8 12"></path></g></g><g stroke-linecap="round"><g transform="translate(559.9999999999998 265.4285714285711) rotate(0 0.7142857142857224 -113.92857142857133)"><path d="M0 0 C0.24 -37.98, 1.19 -189.88, 1.43 -227.86 M0 0 C0.24 -37.98, 1.19 -189.88, 1.43 -227.86" stroke="#000000" stroke-width="4" fill="none"></path></g></g><g stroke-linecap="round"><g transform="translate(190.71428571428572 37.57142857142844) rotate(0 185.7142857142856 -0.7142857142857792)"><path d="M0 0 C61.9 -0.24, 309.52 -1.19, 371.43 -1.43 M0 0 C61.9 -0.24, 309.52 -1.19, 371.43 -1.43" stroke="#000000" stroke-width="4" fill="none"></path></g></g><g transform="translate(189.99999999999994 11.28571428571422) rotate(0 6 12.5)"><text x="0" y="18" font-family="Virgil, Segoe UI Emoji" font-size="20px" fill="#000000" text-anchor="start" style="white-space: pre;" direction="ltr">H</text></g><g transform="translate(10 86.4285714285711) rotate(0 7 12.5)"><text x="0" y="18" font-family="Virgil, Segoe UI Emoji" font-size="20px" fill="#000000" text-anchor="start" style="white-space: pre;" direction="ltr">E</text></g><g transform="translate(571.4285714285713 10) rotate(0 8.5 12.5)"><text x="0" y="18" font-family="Virgil, Segoe UI Emoji" font-size="20px" fill="#000000" text-anchor="start" style="white-space: pre;" direction="ltr">G</text></g><g transform="translate(388.5714285714285 83.57142857142844) rotate(0 6 12.5)"><text x="0" y="18" font-family="Virgil, Segoe UI Emoji" font-size="20px" fill="#000000" text-anchor="start" style="white-space: pre;" direction="ltr">F</text></g><g transform="translate(10 350.7142857142858) rotate(0 7 12.5)"><text x="0" y="18" font-family="Virgil, Segoe UI Emoji" font-size="20px" fill="#000000" text-anchor="start" style="white-space: pre;" direction="ltr">A</text></g><g transform="translate(580.7142857142856 250.71428571428532) rotate(0 7 12.5)"><text x="0" y="18" font-family="Virgil, Segoe UI Emoji" font-size="20px" fill="#000000" text-anchor="start" style="white-space: pre;" direction="ltr">C</text></g><g transform="translate(406.4285714285713 349.99999999999955) rotate(0 8 12.5)"><text x="0" y="18" font-family="Virgil, Segoe UI Emoji" font-size="20px" fill="#000000" text-anchor="start" style="white-space: pre;" direction="ltr">B</text></g><g transform="translate(165.71428571428572 244.99999999999955) rotate(0 8.5 12.5)"><text x="0" y="18" font-family="Virgil, Segoe UI Emoji" font-size="20px" fill="#000000" text-anchor="start" style="white-space: pre;" direction="ltr">D</text></g></svg>