<svg version="1.1" xmlns="http://www.w3.org/2000/svg" viewBox="0 0 435.1671215358489 420" width="435.1671215358489" height="420">
  <!-- svg-source:excalidraw -->
  
  <defs>
    <style>
      @font-face {
        font-family: "Virgil";
        src: url("https://excalidraw.com/Virgil.woff2");
      }
      @font-face {
        font-family: "Cascadia";
        src: url("https://excalidraw.com/Cascadia.woff2");
      }
    </style>
  </defs>
  <g stroke-linecap="round"><g transform="translate(25.16712153584899 410) rotate(0 199.99999999999994 -200)"><path d="M0 0 C66.67 -66.67, 333.33 -333.33, 400 -400 M0 0 C66.67 -66.67, 333.33 -333.33, 400 -400" stroke="#000000" stroke-width="2" fill="none"></path></g></g><g stroke-linecap="round"><g transform="translate(100.16712153584899 335.00000000000045) rotate(0.18518634669489878 132.85714285714283 -133)"><path d="M0 0 C44.29 -44.33, 221.43 -221.67, 265.71 -266 M0 0 C44.29 -44.33, 221.43 -221.67, 265.71 -266" stroke="#c92a2a" stroke-width="4" fill="none"></path></g></g><g stroke-linecap="round"><g transform="translate(330.64096970649314 104.69066713860911) rotate(0 20.3125 -20)"><path d="M0 0 C6.77 -6.67, 33.85 -33.33, 40.63 -40 M0 0 C6.77 -6.67, 33.85 -33.33, 40.63 -40" stroke="#c92a2a" stroke-width="2" fill="none"></path></g><g transform="translate(330.64096970649314 104.69066713860911) rotate(0 20.3125 -20)"><path d="M28.38 -14.26 C31.35 -20.5, 34.32 -26.74, 40.63 -40 M28.38 -14.26 C33.27 -24.54, 38.16 -34.82, 40.63 -40" stroke="#c92a2a" stroke-width="2" fill="none"></path></g><g transform="translate(330.64096970649314 104.69066713860911) rotate(0 20.3125 -20)"><path d="M14.7 -28.15 C20.98 -31.03, 27.27 -33.9, 40.63 -40 M14.7 -28.15 C25.05 -32.89, 35.41 -37.62, 40.63 -40" stroke="#c92a2a" stroke-width="2" fill="none"></path></g></g><g transform="translate(352.51596970649314 27.565667138609115) rotate(0 8 12.5)"><text x="0" y="18" font-family="Virgil, Segoe UI Emoji" font-size="20px" fill="#c92a2a" text-anchor="start" style="white-space: pre;" direction="ltr">B</text></g><g transform="translate(88.76596970649314 285.0656671386091) rotate(0 7 12.5)"><text x="0" y="18" font-family="Virgil, Segoe UI Emoji" font-size="20px" fill="#c92a2a" text-anchor="start" style="white-space: pre;" direction="ltr">A</text></g><g transform="translate(220.01596970649314 171.31566713860911) rotate(0 6 12.5)"><text x="0" y="18" font-family="Virgil, Segoe UI Emoji" font-size="20px" fill="#c92a2a" text-anchor="start" style="white-space: pre;" direction="ltr">u</text></g><g stroke-linecap="round" transform="translate(97.1738164218217 330.3704116641552) rotate(0 3.175182481751847 3.414689781021707)"><path d="M6.35 3.41 C6.35 3.61, 6.33 3.81, 6.3 4.01 C6.27 4.2, 6.22 4.4, 6.16 4.58 C6.1 4.77, 6.02 4.95, 5.92 5.12 C5.83 5.29, 5.73 5.46, 5.61 5.61 C5.49 5.76, 5.36 5.9, 5.22 6.03 C5.08 6.16, 4.92 6.27, 4.76 6.37 C4.6 6.47, 4.43 6.56, 4.26 6.62 C4.09 6.69, 3.91 6.74, 3.73 6.78 C3.55 6.81, 3.36 6.83, 3.18 6.83 C2.99 6.83, 2.8 6.81, 2.62 6.78 C2.44 6.74, 2.26 6.69, 2.09 6.62 C1.92 6.56, 1.75 6.47, 1.59 6.37 C1.43 6.27, 1.28 6.16, 1.13 6.03 C0.99 5.9, 0.86 5.76, 0.74 5.61 C0.62 5.46, 0.52 5.29, 0.43 5.12 C0.33 4.95, 0.25 4.77, 0.19 4.58 C0.13 4.4, 0.08 4.2, 0.05 4.01 C0.02 3.81, 0 3.61, 0 3.41 C0 3.22, 0.02 3.02, 0.05 2.82 C0.08 2.63, 0.13 2.43, 0.19 2.25 C0.25 2.06, 0.33 1.88, 0.43 1.71 C0.52 1.54, 0.62 1.37, 0.74 1.22 C0.86 1.07, 0.99 0.93, 1.13 0.8 C1.28 0.67, 1.43 0.56, 1.59 0.46 C1.75 0.36, 1.92 0.27, 2.09 0.21 C2.26 0.14, 2.44 0.09, 2.62 0.05 C2.8 0.02, 2.99 0, 3.18 0 C3.36 0, 3.55 0.02, 3.73 0.05 C3.91 0.09, 4.09 0.14, 4.26 0.21 C4.43 0.27, 4.6 0.36, 4.76 0.46 C4.92 0.56, 5.08 0.67, 5.22 0.8 C5.36 0.93, 5.49 1.07, 5.61 1.22 C5.73 1.37, 5.83 1.54, 5.92 1.71 C6.02 1.88, 6.1 2.06, 6.16 2.25 C6.22 2.43, 6.27 2.63, 6.3 2.82 C6.33 3.02, 6.34 3.32, 6.35 3.41 C6.36 3.51, 6.36 3.32, 6.35 3.41" stroke="#c92a2a" stroke-width="4" fill="none"></path></g><g transform="translate(10 372.3810926184274) rotate(0 6 12.5)"><text x="0" y="18" font-family="Virgil, Segoe UI Emoji" font-size="20px" fill="#000000" text-anchor="start" style="white-space: pre;" direction="ltr">d</text></g><g stroke-linecap="round" transform="translate(366.59482225131217 62.63297566558276) rotate(0 3.175182481751847 3.414689781021707)"><path d="M6.35 3.41 C6.35 3.61, 6.33 3.81, 6.3 4.01 C6.27 4.2, 6.22 4.4, 6.16 4.58 C6.1 4.77, 6.02 4.95, 5.92 5.12 C5.83 5.29, 5.73 5.46, 5.61 5.61 C5.49 5.76, 5.36 5.9, 5.22 6.03 C5.08 6.16, 4.92 6.27, 4.76 6.37 C4.6 6.47, 4.43 6.56, 4.26 6.62 C4.09 6.69, 3.91 6.74, 3.73 6.78 C3.55 6.81, 3.36 6.83, 3.18 6.83 C2.99 6.83, 2.8 6.81, 2.62 6.78 C2.44 6.74, 2.26 6.69, 2.09 6.62 C1.92 6.56, 1.75 6.47, 1.59 6.37 C1.43 6.27, 1.28 6.16, 1.13 6.03 C0.99 5.9, 0.86 5.76, 0.74 5.61 C0.62 5.46, 0.52 5.29, 0.43 5.12 C0.33 4.95, 0.25 4.77, 0.19 4.58 C0.13 4.4, 0.08 4.2, 0.05 4.01 C0.02 3.81, 0 3.61, 0 3.41 C0 3.22, 0.02 3.02, 0.05 2.82 C0.08 2.63, 0.13 2.43, 0.19 2.25 C0.25 2.06, 0.33 1.88, 0.43 1.71 C0.52 1.54, 0.62 1.37, 0.74 1.22 C0.86 1.07, 0.99 0.93, 1.13 0.8 C1.28 0.67, 1.43 0.56, 1.59 0.46 C1.75 0.36, 1.92 0.27, 2.09 0.21 C2.26 0.14, 2.44 0.09, 2.62 0.05 C2.8 0.02, 2.99 0, 3.18 0 C3.36 0, 3.55 0.02, 3.73 0.05 C3.91 0.09, 4.09 0.14, 4.26 0.21 C4.43 0.27, 4.6 0.36, 4.76 0.46 C4.92 0.56, 5.08 0.67, 5.22 0.8 C5.36 0.93, 5.49 1.07, 5.61 1.22 C5.73 1.37, 5.83 1.54, 5.92 1.71 C6.02 1.88, 6.1 2.06, 6.16 2.25 C6.22 2.43, 6.27 2.63, 6.3 2.82 C6.33 3.02, 6.34 3.32, 6.35 3.41 C6.36 3.51, 6.36 3.32, 6.35 3.41" stroke="#c92a2a" stroke-width="4" fill="none"></path></g></svg>