<svg version="1.1" xmlns="http://www.w3.org/2000/svg" viewBox="0 0 590.1361916281959 624.9877260134092" width="590.1361916281959" height="624.9877260134092">
  <!-- svg-source:excalidraw -->
  
  <defs>
    <style>
      @font-face {
        font-family: "Virgil";
        src: url("https://excalidraw.com/Virgil.woff2");
      }
      @font-face {
        font-family: "Cascadia";
        src: url("https://excalidraw.com/Cascadia.woff2");
      }
    </style>
  </defs>
  <g stroke-linecap="round"><g transform="translate(146.36363636363626 300.84629645907694) rotate(0 -68.18181818181813 157.07071477716613)"><path d="M0 0 C-22.73 52.36, -113.64 261.78, -136.36 314.14 M0 0 C-22.73 52.36, -113.64 261.78, -136.36 314.14" stroke="#000000" stroke-width="4" fill="none"></path></g></g><g stroke-linecap="round"><g transform="translate(373.18729614195104 299.7194271281048) rotate(0 -13.073534228340122 24.443578029450236)"><path d="M0 0 C-4.36 8.15, -21.79 40.74, -26.15 48.89" stroke="#000000" stroke-width="4.5" fill="none" stroke-dasharray="1.5 10"></path></g></g><g stroke-linecap="round"><g transform="translate(146.80283979936075 300.84632420233015) rotate(0 216.66667591441757 -2.525260231711627)"><path d="M0 0 C72.22 -0.84, 361.11 -4.21, 433.33 -5.05 M0 0 C72.22 -0.84, 361.11 -4.21, 433.33 -5.05" stroke="#000000" stroke-width="4" fill="none"></path></g></g><g stroke-linecap="round"><g transform="translate(125.46483885259943 355.2908025551949) rotate(0 107.870390920928 -1.599331480083947)"><path d="M0 0 C35.96 -0.53, 179.78 -2.67, 215.74 -3.2" stroke="#000000" stroke-width="4.5" fill="none" stroke-dasharray="1.5 10"></path></g></g><g stroke-linecap="round"><g transform="translate(146.11550487900536 299.68255179268976) rotate(0 -0.7936532156808198 -144.84127589634488)"><path d="M0 0 C-0.26 -48.28, -1.32 -241.4, -1.59 -289.68 M0 0 C-0.26 -48.28, -1.32 -241.4, -1.59 -289.68" stroke="#000000" stroke-width="4" fill="none"></path></g></g><g stroke-linecap="round"><g transform="translate(146.88034408439648 299.9597239803959) rotate(0 98.14816792805988 -103.24073791503906)"><path d="M0 0 C32.72 -34.41, 163.58 -172.07, 196.3 -206.48 M0 0 C32.72 -34.41, 163.58 -172.07, 196.3 -206.48" stroke="#000000" stroke-width="4" fill="none"></path></g><g transform="translate(146.88034408439648 299.9597239803959) rotate(0 98.14816792805988 -103.24073791503906)"><path d="M184.31 -178.98 C188.24 -187.99, 192.16 -196.99, 196.3 -206.48 M184.31 -178.98 C188.41 -188.39, 192.51 -197.8, 196.3 -206.48" stroke="#000000" stroke-width="4" fill="none"></path></g><g transform="translate(146.88034408439648 299.9597239803959) rotate(0 98.14816792805988 -103.24073791503906)"><path d="M169.44 -193.12 C178.23 -197.5, 187.03 -201.87, 196.3 -206.48 M169.44 -193.12 C178.63 -197.69, 187.82 -202.27, 196.3 -206.48" stroke="#000000" stroke-width="4" fill="none"></path></g></g><g stroke-linecap="round"><g transform="translate(145.02848658114124 43.47824815031754) rotate(0 99.0740966796875 25.46296437581384)"><path d="M0 0 C33.02 8.49, 165.12 42.44, 198.15 50.93" stroke="#000000" stroke-width="4.5" fill="none" stroke-dasharray="1.5 10"></path></g></g><g stroke-linecap="round"><g transform="translate(342.25067489494336 96.25603440520058) rotate(0 1.8518575032551894 127.31482187906909)"><path d="M0 0 C0.62 42.44, 3.09 212.19, 3.7 254.63" stroke="#000000" stroke-width="4.5" fill="none" stroke-dasharray="1.5 10"></path></g></g><g stroke-linecap="round"><g transform="translate(147.90214614191063 299.285981384073) rotate(0 -9.35672157689146 19.883037366365215)"><path d="M0 0 C-3.12 6.63, -15.59 33.14, -18.71 39.77 M0 0 C-3.12 6.63, -15.59 33.14, -18.71 39.77" stroke="#000000" stroke-width="4" fill="none"></path></g><g transform="translate(147.90214614191063 299.285981384073) rotate(0 -9.35672157689146 19.883037366365215)"><path d="M-16.72 17.88 C-17.34 24.73, -17.97 31.58, -18.71 39.77 M-16.72 17.88 C-17.33 24.61, -17.95 31.33, -18.71 39.77" stroke="#000000" stroke-width="4" fill="none"></path></g><g transform="translate(147.90214614191063 299.285981384073) rotate(0 -9.35672157689146 19.883037366365215)"><path d="M-3.12 24.28 C-8 29.13, -12.88 33.97, -18.71 39.77 M-3.12 24.28 C-7.91 29.04, -12.7 33.8, -18.71 39.77" stroke="#000000" stroke-width="4" fill="none"></path></g></g><g stroke-linecap="round"><g transform="translate(146.14777088492053 301.04035664106345) rotate(0 67.54384894120062 -0.8771876284952214)"><path d="M0 0 C22.51 -0.29, 112.57 -1.46, 135.09 -1.75 M0 0 C22.51 -0.29, 112.57 -1.46, 135.09 -1.75" stroke="#000000" stroke-width="4" fill="none"></path></g><g transform="translate(146.14777088492053 301.04035664106345) rotate(0 67.54384894120062 -0.8771876284952214)"><path d="M107.03 8.87 C116.96 5.11, 126.89 1.35, 135.09 -1.75 M107.03 8.87 C117.9 4.76, 128.76 0.64, 135.09 -1.75" stroke="#000000" stroke-width="4" fill="none"></path></g><g transform="translate(146.14777088492053 301.04035664106345) rotate(0 67.54384894120062 -0.8771876284952214)"><path d="M106.77 -11.65 C116.79 -8.15, 126.81 -4.65, 135.09 -1.75 M106.77 -11.65 C117.73 -7.82, 128.7 -3.99, 135.09 -1.75" stroke="#000000" stroke-width="4" fill="none"></path></g></g><g stroke-linecap="round"><g transform="translate(146.14777088492053 299.285981384073) rotate(0 -0.5847971062911483 -86.84211329409936)"><path d="M0 0 C-0.19 -28.95, -0.97 -144.74, -1.17 -173.68 M0 0 C-0.19 -28.95, -0.97 -144.74, -1.17 -173.68" stroke="#000000" stroke-width="4" fill="none"></path></g><g transform="translate(146.14777088492053 299.285981384073) rotate(0 -0.5847971062911483 -86.84211329409936)"><path d="M9.28 -145.56 C5.17 -156.64, 1.05 -167.71, -1.17 -173.68 M9.28 -145.56 C5.35 -156.14, 1.42 -166.73, -1.17 -173.68" stroke="#000000" stroke-width="4" fill="none"></path></g><g transform="translate(146.14777088492053 299.285981384073) rotate(0 -0.5847971062911483 -86.84211329409936)"><path d="M-11.24 -145.42 C-7.27 -156.55, -3.31 -167.68, -1.17 -173.68 M-11.24 -145.42 C-7.45 -156.06, -3.66 -166.69, -1.17 -173.68" stroke="#000000" stroke-width="4" fill="none"></path></g></g><g stroke-linecap="round" transform="translate(337.3337056453381 89.48373384897855) rotate(0 5.699860543915747 5.387204653257186)"><path d="M11.4 5.39 C11.4 5.7, 11.37 6.02, 11.31 6.32 C11.26 6.63, 11.17 6.94, 11.06 7.23 C10.94 7.52, 10.8 7.81, 10.64 8.08 C10.47 8.35, 10.28 8.61, 10.07 8.85 C9.85 9.09, 9.62 9.31, 9.36 9.51 C9.11 9.71, 8.84 9.9, 8.55 10.05 C8.26 10.21, 7.96 10.34, 7.65 10.45 C7.34 10.56, 7.01 10.64, 6.69 10.69 C6.36 10.75, 6.03 10.77, 5.7 10.77 C5.37 10.77, 5.04 10.75, 4.71 10.69 C4.39 10.64, 4.06 10.56, 3.75 10.45 C3.44 10.34, 3.14 10.21, 2.85 10.05 C2.56 9.9, 2.29 9.71, 2.04 9.51 C1.78 9.31, 1.55 9.09, 1.33 8.85 C1.12 8.61, 0.93 8.35, 0.76 8.08 C0.6 7.81, 0.46 7.52, 0.34 7.23 C0.23 6.94, 0.14 6.63, 0.09 6.32 C0.03 6.02, 0 5.7, 0 5.39 C0 5.08, 0.03 4.76, 0.09 4.45 C0.14 4.14, 0.23 3.84, 0.34 3.54 C0.46 3.25, 0.6 2.96, 0.76 2.69 C0.93 2.42, 1.12 2.16, 1.33 1.92 C1.55 1.69, 1.78 1.46, 2.04 1.26 C2.29 1.06, 2.56 0.88, 2.85 0.72 C3.14 0.57, 3.44 0.43, 3.75 0.32 C4.06 0.22, 4.39 0.14, 4.71 0.08 C5.04 0.03, 5.37 0, 5.7 0 C6.03 0, 6.36 0.03, 6.69 0.08 C7.01 0.14, 7.34 0.22, 7.65 0.32 C7.96 0.43, 8.26 0.57, 8.55 0.72 C8.84 0.88, 9.11 1.06, 9.36 1.26 C9.62 1.46, 9.85 1.69, 10.07 1.92 C10.28 2.16, 10.47 2.42, 10.64 2.69 C10.8 2.96, 10.94 3.25, 11.06 3.54 C11.17 3.84, 11.26 4.14, 11.31 4.45 C11.37 4.76, 11.39 5.23, 11.4 5.39 C11.41 5.54, 11.41 5.23, 11.4 5.39" stroke="none" stroke-width="0" fill="#364fc7"></path><path d="M11.4 5.39 C11.4 5.7, 11.37 6.02, 11.31 6.32 C11.26 6.63, 11.17 6.94, 11.06 7.23 C10.94 7.52, 10.8 7.81, 10.64 8.08 C10.47 8.35, 10.28 8.61, 10.07 8.85 C9.85 9.09, 9.62 9.31, 9.36 9.51 C9.11 9.71, 8.84 9.9, 8.55 10.05 C8.26 10.21, 7.96 10.34, 7.65 10.45 C7.34 10.56, 7.01 10.64, 6.69 10.69 C6.36 10.75, 6.03 10.77, 5.7 10.77 C5.37 10.77, 5.04 10.75, 4.71 10.69 C4.39 10.64, 4.06 10.56, 3.75 10.45 C3.44 10.34, 3.14 10.21, 2.85 10.05 C2.56 9.9, 2.29 9.71, 2.04 9.51 C1.78 9.31, 1.55 9.09, 1.33 8.85 C1.12 8.61, 0.93 8.35, 0.76 8.08 C0.6 7.81, 0.46 7.52, 0.34 7.23 C0.23 6.94, 0.14 6.63, 0.09 6.32 C0.03 6.02, 0 5.7, 0 5.39 C0 5.08, 0.03 4.76, 0.09 4.45 C0.14 4.14, 0.23 3.84, 0.34 3.54 C0.46 3.25, 0.6 2.96, 0.76 2.69 C0.93 2.42, 1.12 2.16, 1.33 1.92 C1.55 1.69, 1.78 1.46, 2.04 1.26 C2.29 1.06, 2.56 0.88, 2.85 0.72 C3.14 0.57, 3.44 0.43, 3.75 0.32 C4.06 0.22, 4.39 0.14, 4.71 0.08 C5.04 0.03, 5.37 0, 5.7 0 C6.03 0, 6.36 0.03, 6.69 0.08 C7.01 0.14, 7.34 0.22, 7.65 0.32 C7.96 0.43, 8.26 0.57, 8.55 0.72 C8.84 0.88, 9.11 1.06, 9.36 1.26 C9.62 1.46, 9.85 1.69, 10.07 1.92 C10.28 2.16, 10.47 2.42, 10.64 2.69 C10.8 2.96, 10.94 3.25, 11.06 3.54 C11.17 3.84, 11.26 4.14, 11.31 4.45 C11.37 4.76, 11.39 5.23, 11.4 5.39 C11.41 5.54, 11.41 5.23, 11.4 5.39" stroke="#000000" stroke-width="1" fill="none"></path></g><g stroke-linecap="round" transform="translate(140.59969685627573 295.4433359737411) rotate(0 5.699860543915747 5.387204653257186)"><path d="M11.4 5.39 C11.4 5.7, 11.37 6.02, 11.31 6.32 C11.26 6.63, 11.17 6.94, 11.06 7.23 C10.94 7.52, 10.8 7.81, 10.64 8.08 C10.47 8.35, 10.28 8.61, 10.07 8.85 C9.85 9.09, 9.62 9.31, 9.36 9.51 C9.11 9.71, 8.84 9.9, 8.55 10.05 C8.26 10.21, 7.96 10.34, 7.65 10.45 C7.34 10.56, 7.01 10.64, 6.69 10.69 C6.36 10.75, 6.03 10.77, 5.7 10.77 C5.37 10.77, 5.04 10.75, 4.71 10.69 C4.39 10.64, 4.06 10.56, 3.75 10.45 C3.44 10.34, 3.14 10.21, 2.85 10.05 C2.56 9.9, 2.29 9.71, 2.04 9.51 C1.78 9.31, 1.55 9.09, 1.33 8.85 C1.12 8.61, 0.93 8.35, 0.76 8.08 C0.6 7.81, 0.46 7.52, 0.34 7.23 C0.23 6.94, 0.14 6.63, 0.09 6.32 C0.03 6.02, 0 5.7, 0 5.39 C0 5.08, 0.03 4.76, 0.09 4.45 C0.14 4.14, 0.23 3.84, 0.34 3.54 C0.46 3.25, 0.6 2.96, 0.76 2.69 C0.93 2.42, 1.12 2.16, 1.33 1.92 C1.55 1.69, 1.78 1.46, 2.04 1.26 C2.29 1.06, 2.56 0.88, 2.85 0.72 C3.14 0.57, 3.44 0.43, 3.75 0.32 C4.06 0.22, 4.39 0.14, 4.71 0.08 C5.04 0.03, 5.37 0, 5.7 0 C6.03 0, 6.36 0.03, 6.69 0.08 C7.01 0.14, 7.34 0.22, 7.65 0.32 C7.96 0.43, 8.26 0.57, 8.55 0.72 C8.84 0.88, 9.11 1.06, 9.36 1.26 C9.62 1.46, 9.85 1.69, 10.07 1.92 C10.28 2.16, 10.47 2.42, 10.64 2.69 C10.8 2.96, 10.94 3.25, 11.06 3.54 C11.17 3.84, 11.26 4.14, 11.31 4.45 C11.37 4.76, 11.39 5.23, 11.4 5.39 C11.41 5.54, 11.41 5.23, 11.4 5.39" stroke="none" stroke-width="0" fill="#364fc7"></path><path d="M11.4 5.39 C11.4 5.7, 11.37 6.02, 11.31 6.32 C11.26 6.63, 11.17 6.94, 11.06 7.23 C10.94 7.52, 10.8 7.81, 10.64 8.08 C10.47 8.35, 10.28 8.61, 10.07 8.85 C9.85 9.09, 9.62 9.31, 9.36 9.51 C9.11 9.71, 8.84 9.9, 8.55 10.05 C8.26 10.21, 7.96 10.34, 7.65 10.45 C7.34 10.56, 7.01 10.64, 6.69 10.69 C6.36 10.75, 6.03 10.77, 5.7 10.77 C5.37 10.77, 5.04 10.75, 4.71 10.69 C4.39 10.64, 4.06 10.56, 3.75 10.45 C3.44 10.34, 3.14 10.21, 2.85 10.05 C2.56 9.9, 2.29 9.71, 2.04 9.51 C1.78 9.31, 1.55 9.09, 1.33 8.85 C1.12 8.61, 0.93 8.35, 0.76 8.08 C0.6 7.81, 0.46 7.52, 0.34 7.23 C0.23 6.94, 0.14 6.63, 0.09 6.32 C0.03 6.02, 0 5.7, 0 5.39 C0 5.08, 0.03 4.76, 0.09 4.45 C0.14 4.14, 0.23 3.84, 0.34 3.54 C0.46 3.25, 0.6 2.96, 0.76 2.69 C0.93 2.42, 1.12 2.16, 1.33 1.92 C1.55 1.69, 1.78 1.46, 2.04 1.26 C2.29 1.06, 2.56 0.88, 2.85 0.72 C3.14 0.57, 3.44 0.43, 3.75 0.32 C4.06 0.22, 4.39 0.14, 4.71 0.08 C5.04 0.03, 5.37 0, 5.7 0 C6.03 0, 6.36 0.03, 6.69 0.08 C7.01 0.14, 7.34 0.22, 7.65 0.32 C7.96 0.43, 8.26 0.57, 8.55 0.72 C8.84 0.88, 9.11 1.06, 9.36 1.26 C9.62 1.46, 9.85 1.69, 10.07 1.92 C10.28 2.16, 10.47 2.42, 10.64 2.69 C10.8 2.96, 10.94 3.25, 11.06 3.54 C11.17 3.84, 11.26 4.14, 11.31 4.45 C11.37 4.76, 11.39 5.23, 11.4 5.39 C11.41 5.54, 11.41 5.23, 11.4 5.39" stroke="#000000" stroke-width="1" fill="none"></path></g><g transform="translate(351.70350295366177 64.68477125081131) rotate(0 8.5 13)"><text x="0" y="18" font-family="Virgil, Segoe UI Emoji" font-size="20px" fill="#364fc7" text-anchor="start" style="white-space: pre;" direction="ltr">M</text></g><g transform="translate(117.8410674765413 286.9070031611534) rotate(0 8 13)"><text x="0" y="18" font-family="Virgil, Segoe UI Emoji" font-size="20px" fill="#364fc7" text-anchor="start" style="white-space: pre;" direction="ltr">O</text></g><g transform="translate(126.30667271277639 29.764131486116185) rotate(0 6 13.000000000000114)"><text x="0" y="18" font-family="Virgil, Segoe UI Emoji" font-size="20px" fill="#000000" text-anchor="start" style="white-space: pre;" direction="ltr">z</text></g><g transform="translate(376.0421434391527 266.2720922143528) rotate(0 5 13)"><text x="0" y="18" font-family="Virgil, Segoe UI Emoji" font-size="20px" fill="#000000" text-anchor="start" style="white-space: pre;" direction="ltr">y</text></g><g transform="translate(128.95218343171234 358.86469126569204) rotate(0 6 13)"><text x="0" y="18" font-family="Virgil, Segoe UI Emoji" font-size="20px" fill="#000000" text-anchor="start" style="white-space: pre;" direction="ltr">x</text></g><g transform="translate(231.12331067588184 268.3155199306882) rotate(0 4 13)"><text x="0" y="18" font-family="Virgil, Segoe UI Emoji" font-size="20px" fill="#000000" text-anchor="start" style="white-space: pre;" direction="ltr">j</text></g><g transform="translate(113.07916271463648 181.08689411167438) rotate(0 5.5 13)"><text x="0" y="18" font-family="Virgil, Segoe UI Emoji" font-size="20px" fill="#000000" text-anchor="start" style="white-space: pre;" direction="ltr">k</text></g><g transform="translate(161.1551641667976 319.2783325966923) rotate(0 3 13)"><text x="0" y="18" font-family="Virgil, Segoe UI Emoji" font-size="20px" fill="#000000" text-anchor="start" style="white-space: pre;" direction="ltr">i</text></g><g stroke-linecap="round"><g transform="translate(223.6466837371422 267.7454015890046) rotate(0 11.206899182549819 -0.38314030088235995)"><path d="M0 0 C3.74 -0.13, 18.68 -0.64, 22.41 -0.77 M0 0 C3.74 -0.13, 18.68 -0.64, 22.41 -0.77" stroke="#000000" stroke-width="1" fill="none"></path></g><g transform="translate(223.6466837371422 267.7454015890046) rotate(0 11.206899182549819 -0.38314030088235995)"><path d="M12.01 3.43 C15.93 1.85, 19.84 0.27, 22.41 -0.77 M12.01 3.43 C14.27 2.52, 16.52 1.61, 22.41 -0.77" stroke="#000000" stroke-width="1" fill="none"></path></g><g transform="translate(223.6466837371422 267.7454015890046) rotate(0 11.206899182549819 -0.38314030088235995)"><path d="M11.75 -4.24 C15.76 -2.93, 19.77 -1.63, 22.41 -0.77 M11.75 -4.24 C14.06 -3.49, 16.37 -2.74, 22.41 -0.77" stroke="#000000" stroke-width="1" fill="none"></path></g></g><g stroke-linecap="round"><g transform="translate(107.3840605570997 177.2403634142886) rotate(0 11.206899182549819 -0.38314030088235995)"><path d="M0 0 C3.74 -0.13, 18.68 -0.64, 22.41 -0.77 M0 0 C3.74 -0.13, 18.68 -0.64, 22.41 -0.77" stroke="#000000" stroke-width="1" fill="none"></path></g><g transform="translate(107.3840605570997 177.2403634142886) rotate(0 11.206899182549819 -0.38314030088235995)"><path d="M12.01 3.43 C14.27 2.52, 16.52 1.61, 22.41 -0.77 M12.01 3.43 C14.95 2.24, 17.89 1.06, 22.41 -0.77" stroke="#000000" stroke-width="1" fill="none"></path></g><g transform="translate(107.3840605570997 177.2403634142886) rotate(0 11.206899182549819 -0.38314030088235995)"><path d="M11.75 -4.24 C14.06 -3.49, 16.37 -2.74, 22.41 -0.77 M11.75 -4.24 C14.76 -3.26, 17.78 -2.28, 22.41 -0.77" stroke="#000000" stroke-width="1" fill="none"></path></g></g><g stroke-linecap="round"><g transform="translate(154.59094884110766 320.63835894188765) rotate(0 10.208072865347958 -0.018642478237325122)"><path d="M0 0 C3.4 -0.01, 17.01 -0.03, 20.42 -0.04 M0 0 C3.4 -0.01, 17.01 -0.03, 20.42 -0.04" stroke="#000000" stroke-width="1" fill="none"></path></g><g transform="translate(154.59094884110766 320.63835894188765) rotate(0 10.208072865347958 -0.018642478237325122)"><path d="M10.83 3.47 C14.48 2.14, 18.13 0.8, 20.42 -0.04 M10.83 3.47 C12.82 2.74, 14.8 2.02, 20.42 -0.04" stroke="#000000" stroke-width="1" fill="none"></path></g><g transform="translate(154.59094884110766 320.63835894188765) rotate(0 10.208072865347958 -0.018642478237325122)"><path d="M10.82 -3.51 C14.47 -2.19, 18.13 -0.87, 20.42 -0.04 M10.82 -3.51 C12.81 -2.79, 14.8 -2.07, 20.42 -0.04" stroke="#000000" stroke-width="1" fill="none"></path></g></g></svg>