<svg version="1.1" xmlns="http://www.w3.org/2000/svg" viewBox="0 0 1348.3011733214908 666.5899437378516" width="1348.3011733214908" height="666.5899437378516">
  <!-- svg-source:excalidraw -->
  
  <defs>
    <style>
      @font-face {
        font-family: "Virgil";
        src: url("https://excalidraw.com/Virgil.woff2");
      }
      @font-face {
        font-family: "Cascadia";
        src: url("https://excalidraw.com/Cascadia.woff2");
      }
    </style>
  </defs>
  <g stroke-linecap="round"><g transform="translate(325.53509489150406 499.09005671863406) rotate(18.204235477594448 199.99999999999994 -200)"><path d="M0 0 C66.67 -66.67, 333.33 -333.33, 400 -400 M0 0 C66.67 -66.67, 333.33 -333.33, 400 -400" stroke="#000000" stroke-width="2" fill="none"></path></g></g><g stroke-linecap="round"><g transform="translate(339.8555459417456 616.360611082458) rotate(57.79470909714593 199.99999999999994 -200)"><path d="M0 0 C66.67 -66.67, 333.33 -333.33, 400 -400 M0 0 C66.67 -66.67, 333.33 -333.33, 400 -400" stroke="#000000" stroke-width="2" fill="none"></path></g></g><g stroke-linecap="round"><g transform="translate(402.6410778612998 426.94507687084706) rotate(18.389421824289347 132.85714285714283 -133)"><path d="M0 0 C44.29 -44.33, 221.43 -221.67, 265.71 -266 M0 0 C44.29 -44.33, 221.43 -221.67, 265.71 -266" stroke="#c92a2a" stroke-width="4" fill="none"></path></g></g><g stroke-linecap="round"><g transform="translate(417.95505369290345 551.7452496976748) rotate(57.97989544384083 132.85714285714283 -133)"><path d="M0 0 C44.29 -44.33, 221.43 -221.67, 265.71 -266 M0 0 C44.29 -44.33, 221.43 -221.67, 265.71 -266" stroke="#c92a2a" stroke-width="4" fill="none"></path></g></g><g stroke-linecap="round"><g transform="translate(585.566224056492 297.0954132603829) rotate(18.204235477594448 54.83378879540163 -55.14510098343567)"><path d="M0 0 C18.28 -18.38, 91.39 -91.91, 109.67 -110.29 M0 0 C18.28 -18.38, 91.39 -91.91, 109.67 -110.29" stroke="#c92a2a" stroke-width="2" fill="none"></path></g><g transform="translate(585.566224056492 297.0954132603829) rotate(18.204235477594448 54.83378879540163 -55.14510098343567)"><path d="M97.07 -83.07 C100.12 -89.66, 103.18 -96.26, 109.67 -110.29 M97.07 -83.07 C102.1 -93.94, 107.13 -104.81, 109.67 -110.29" stroke="#c92a2a" stroke-width="2" fill="none"></path></g><g transform="translate(585.566224056492 297.0954132603829) rotate(18.204235477594448 54.83378879540163 -55.14510098343567)"><path d="M82.51 -97.53 C89.1 -100.63, 95.68 -103.72, 109.67 -110.29 M82.51 -97.53 C93.36 -102.63, 104.21 -107.72, 109.67 -110.29" stroke="#c92a2a" stroke-width="2" fill="none"></path></g></g><g stroke-linecap="round"><g transform="translate(692.7233157432069 475.86067801271747) rotate(57.79470909714593 20.121338951548864 -20.027022439975553)"><path d="M0 0 C6.71 -6.68, 33.54 -33.38, 40.24 -40.05 M0 0 C6.71 -6.68, 33.54 -33.38, 40.24 -40.05" stroke="#c92a2a" stroke-width="2" fill="none"></path></g><g transform="translate(692.7233157432069 475.86067801271747) rotate(57.79470909714593 20.121338951548864 -20.027022439975553)"><path d="M28.18 -14.35 C32.66 -23.89, 37.13 -33.42, 40.24 -40.05 M28.18 -14.35 C32.61 -23.79, 37.04 -33.23, 40.24 -40.05" stroke="#c92a2a" stroke-width="2" fill="none"></path></g><g transform="translate(692.7233157432069 475.86067801271747) rotate(57.79470909714593 20.121338951548864 -20.027022439975553)"><path d="M14.49 -28.12 C24.04 -32.54, 33.59 -36.97, 40.24 -40.05 M14.49 -28.12 C23.94 -32.5, 33.4 -36.88, 40.24 -40.05" stroke="#c92a2a" stroke-width="2" fill="none"></path></g></g><g transform="translate(347.9302869324572 321.0769769515823) rotate(352.7750538863025 13.781805203640658 24.610366435072592)"><text x="0" y="34.22073287014521" font-family="Virgil, Segoe UI Emoji" font-size="39.37658629611616px" fill="#c92a2a" text-anchor="start" style="white-space: pre;" direction="ltr">A</text></g><g stroke-linecap="round" transform="translate(365.11796435016515 374.27107195808185) rotate(18.204235477594448 3.175182481751847 3.414689781021707)"><path d="M6.35 3.41 C6.35 3.61, 6.33 3.81, 6.3 4.01 C6.27 4.2, 6.22 4.4, 6.16 4.58 C6.1 4.77, 6.02 4.95, 5.92 5.12 C5.83 5.29, 5.73 5.46, 5.61 5.61 C5.49 5.76, 5.36 5.9, 5.22 6.03 C5.08 6.16, 4.92 6.27, 4.76 6.37 C4.6 6.47, 4.43 6.56, 4.26 6.62 C4.09 6.69, 3.91 6.74, 3.73 6.78 C3.55 6.81, 3.36 6.83, 3.18 6.83 C2.99 6.83, 2.8 6.81, 2.62 6.78 C2.44 6.74, 2.26 6.69, 2.09 6.62 C1.92 6.56, 1.75 6.47, 1.59 6.37 C1.43 6.27, 1.28 6.16, 1.13 6.03 C0.99 5.9, 0.86 5.76, 0.74 5.61 C0.62 5.46, 0.52 5.29, 0.43 5.12 C0.33 4.95, 0.25 4.77, 0.19 4.58 C0.13 4.4, 0.08 4.2, 0.05 4.01 C0.02 3.81, 0 3.61, 0 3.41 C0 3.22, 0.02 3.02, 0.05 2.82 C0.08 2.63, 0.13 2.43, 0.19 2.25 C0.25 2.06, 0.33 1.88, 0.43 1.71 C0.52 1.54, 0.62 1.37, 0.74 1.22 C0.86 1.07, 0.99 0.93, 1.13 0.8 C1.28 0.67, 1.43 0.56, 1.59 0.46 C1.75 0.36, 1.92 0.27, 2.09 0.21 C2.26 0.14, 2.44 0.09, 2.62 0.05 C2.8 0.02, 2.99 0, 3.18 0 C3.36 0, 3.55 0.02, 3.73 0.05 C3.91 0.09, 4.09 0.14, 4.26 0.21 C4.43 0.27, 4.6 0.36, 4.76 0.46 C4.92 0.56, 5.08 0.67, 5.22 0.8 C5.36 0.93, 5.49 1.07, 5.61 1.22 C5.73 1.37, 5.83 1.54, 5.92 1.71 C6.02 1.88, 6.1 2.06, 6.16 2.25 C6.22 2.43, 6.27 2.63, 6.3 2.82 C6.33 3.02, 6.34 3.32, 6.35 3.41 C6.36 3.51, 6.36 3.32, 6.35 3.41" stroke="#c92a2a" stroke-width="4" fill="none"></path></g><g stroke-linecap="round" transform="translate(1050.9108214930225 219.0425005295101) rotate(18.204235477594448 3.1751824817519037 3.414689781021707)"><path d="M6.35 3.41 C6.35 3.61, 6.33 3.81, 6.3 4.01 C6.27 4.2, 6.22 4.4, 6.16 4.58 C6.1 4.77, 6.02 4.95, 5.92 5.12 C5.83 5.29, 5.73 5.46, 5.61 5.61 C5.49 5.76, 5.36 5.9, 5.22 6.03 C5.08 6.16, 4.92 6.27, 4.76 6.37 C4.6 6.47, 4.43 6.56, 4.26 6.62 C4.09 6.69, 3.91 6.74, 3.73 6.78 C3.55 6.81, 3.36 6.83, 3.18 6.83 C2.99 6.83, 2.8 6.81, 2.62 6.78 C2.44 6.74, 2.26 6.69, 2.09 6.62 C1.92 6.56, 1.75 6.47, 1.59 6.37 C1.43 6.27, 1.28 6.16, 1.13 6.03 C0.99 5.9, 0.86 5.76, 0.74 5.61 C0.62 5.46, 0.52 5.29, 0.43 5.12 C0.33 4.95, 0.25 4.77, 0.19 4.58 C0.13 4.4, 0.08 4.2, 0.05 4.01 C0.02 3.81, 0 3.61, 0 3.41 C0 3.22, 0.02 3.02, 0.05 2.82 C0.08 2.63, 0.13 2.43, 0.19 2.25 C0.25 2.06, 0.33 1.88, 0.43 1.71 C0.52 1.54, 0.62 1.37, 0.74 1.22 C0.86 1.07, 0.99 0.93, 1.13 0.8 C1.28 0.67, 1.43 0.56, 1.59 0.46 C1.75 0.36, 1.92 0.27, 2.09 0.21 C2.26 0.14, 2.44 0.09, 2.62 0.05 C2.8 0.02, 2.99 0, 3.18 0 C3.36 0, 3.55 0.02, 3.73 0.05 C3.91 0.09, 4.09 0.14, 4.26 0.21 C4.43 0.27, 4.6 0.36, 4.76 0.46 C4.92 0.56, 5.08 0.67, 5.22 0.8 C5.36 0.93, 5.49 1.07, 5.61 1.22 C5.73 1.37, 5.83 1.54, 5.92 1.71 C6.02 1.88, 6.1 2.06, 6.16 2.25 C6.22 2.43, 6.27 2.63, 6.3 2.82 C6.33 3.02, 6.34 3.32, 6.35 3.41 C6.36 3.51, 6.36 3.32, 6.35 3.41" stroke="#c92a2a" stroke-width="4" fill="none"></path></g><g stroke-linecap="round"><g transform="translate(744.5557972814771 189.94342515629523) rotate(0 156.04411764705878 16.779411764705856)"><path d="M0 0 C52.01 5.59, 260.07 27.97, 312.09 33.56" stroke="#000000" stroke-width="4.5" fill="none" stroke-dasharray="1.5 10"></path></g></g><g stroke-linecap="round"><g transform="translate(717.1341395261175 338.4033150541809) rotate(319.2053570017091 191.02950089261543 4.098933631530144)"><path d="M0 0 C63.68 1.37, 318.38 6.83, 382.06 8.2" stroke="#000000" stroke-width="4.5" fill="none" stroke-dasharray="1.5 10"></path></g></g><g transform="translate(730.4969737520652 145.73454109219347) rotate(0 7.020208185369313 17.550520463423254)"><text x="0" y="25.101040926846622" font-family="Virgil, Segoe UI Emoji" font-size="28.08083274147729px" fill="#000000" text-anchor="start" style="white-space: pre;" direction="ltr">y</text></g><g transform="translate(807.4711263542744 432.70589740309015) rotate(0 9.535378196022748 19.86537124171423)"><text x="0" y="27.73074248342831" font-family="Virgil, Segoe UI Emoji" font-size="31.784593986742653px" fill="#000000" text-anchor="start" style="white-space: pre;" direction="ltr">x</text></g><g transform="translate(1054.2831448536363 221.75699224934579) rotate(0 0.00004999999998744897 0.00005000000010113581)" stroke="none"><path fill="#c92a2a" d="M 1.57,-1.57 Q 1.57,-1.57 1.77,-1.27 1.98,-0.98 2.09,-0.64 2.20,-0.29 2.19,0.05 2.18,0.41 2.05,0.75 1.93,1.09 1.70,1.37 1.48,1.65 1.18,1.84 0.87,2.04 0.52,2.12 0.18,2.21 -0.17,2.18 -0.53,2.15 -0.86,2.01 -1.19,1.87 -1.46,1.63 -1.73,1.39 -1.90,1.07 -2.08,0.76 -2.15,0.41 -2.21,0.05 -2.17,-0.29 -2.12,-0.65 -1.96,-0.97 -1.80,-1.29 -1.54,-1.54 -1.29,-1.80 -0.97,-1.96 -0.65,-2.12 -0.29,-2.17 0.06,-2.21 0.41,-2.15 0.76,-2.08 1.07,-1.90 1.39,-1.73 1.63,-1.46 1.87,-1.19 2.01,-0.86 2.15,-0.53 2.18,-0.17 2.21,0.18 2.12,0.52 2.03,0.87 1.84,1.18 1.65,1.48 1.37,1.70 1.09,1.93 0.75,2.05 0.41,2.18 0.05,2.19 -0.30,2.20 -0.64,2.09 -0.98,1.98 -1.27,1.77 -1.57,1.56 -1.57,1.57 -1.57,1.57 -1.73,1.35 -1.90,1.14 -2.01,0.90 -2.12,0.66 -2.16,0.39 -2.21,0.13 -2.20,-0.13 -2.18,-0.40 -2.10,-0.65 -2.02,-0.91 -1.88,-1.14 -1.74,-1.36 -1.55,-1.55 -1.36,-1.74 -1.14,-1.88 -0.91,-2.02 -0.65,-2.10 -0.40,-2.18 -0.13,-2.20 0.13,-2.21 0.39,-2.16 0.66,-2.12 0.90,-2.01 1.14,-1.90 1.35,-1.73 1.57,-1.57 1.57,-1.57 L 1.57,-1.57 Z"></path></g><g transform="translate(1054.3402877107792 222.78556367791725) rotate(0 0.00004999999998744897 0.00005000000010113581)" stroke="none"><path fill="#c92a2a" d="M 1.57,-1.57 Q 1.57,-1.57 1.77,-1.27 1.98,-0.98 2.09,-0.64 2.20,-0.29 2.19,0.05 2.18,0.41 2.05,0.75 1.93,1.09 1.70,1.37 1.48,1.65 1.18,1.84 0.87,2.04 0.52,2.12 0.18,2.21 -0.17,2.18 -0.53,2.15 -0.86,2.01 -1.19,1.87 -1.46,1.63 -1.73,1.39 -1.90,1.07 -2.08,0.76 -2.15,0.41 -2.21,0.05 -2.17,-0.29 -2.12,-0.65 -1.96,-0.97 -1.80,-1.29 -1.54,-1.54 -1.29,-1.80 -0.97,-1.96 -0.65,-2.12 -0.29,-2.17 0.06,-2.21 0.41,-2.15 0.76,-2.08 1.07,-1.90 1.39,-1.73 1.63,-1.46 1.87,-1.19 2.01,-0.86 2.15,-0.53 2.18,-0.17 2.21,0.18 2.12,0.52 2.03,0.87 1.84,1.18 1.65,1.48 1.37,1.70 1.09,1.93 0.75,2.05 0.41,2.18 0.05,2.19 -0.30,2.20 -0.64,2.09 -0.98,1.98 -1.27,1.77 -1.57,1.56 -1.57,1.57 -1.57,1.57 -1.73,1.35 -1.90,1.14 -2.01,0.90 -2.12,0.66 -2.16,0.39 -2.21,0.13 -2.20,-0.13 -2.18,-0.40 -2.10,-0.65 -2.02,-0.91 -1.88,-1.14 -1.74,-1.36 -1.55,-1.55 -1.36,-1.74 -1.14,-1.88 -0.91,-2.02 -0.65,-2.10 -0.40,-2.18 -0.13,-2.20 0.13,-2.21 0.39,-2.16 0.66,-2.12 0.90,-2.01 1.14,-1.90 1.35,-1.73 1.57,-1.57 1.57,-1.57 L 1.57,-1.57 Z"></path></g><g transform="translate(1053.7688591393503 223.5284208207745) rotate(0 0.00004999999998744897 0.00005000000010113581)" stroke="none"><path fill="#c92a2a" d="M 1.57,-1.57 Q 1.57,-1.57 1.77,-1.27 1.98,-0.98 2.09,-0.64 2.20,-0.29 2.19,0.05 2.18,0.41 2.05,0.75 1.93,1.09 1.70,1.37 1.48,1.65 1.18,1.84 0.87,2.04 0.52,2.12 0.18,2.21 -0.17,2.18 -0.53,2.15 -0.86,2.01 -1.19,1.87 -1.46,1.63 -1.73,1.39 -1.90,1.07 -2.08,0.76 -2.15,0.41 -2.21,0.05 -2.17,-0.29 -2.12,-0.65 -1.96,-0.97 -1.80,-1.29 -1.54,-1.54 -1.29,-1.80 -0.97,-1.96 -0.65,-2.12 -0.29,-2.17 0.06,-2.21 0.41,-2.15 0.76,-2.08 1.07,-1.90 1.39,-1.73 1.63,-1.46 1.87,-1.19 2.01,-0.86 2.15,-0.53 2.18,-0.17 2.21,0.18 2.12,0.52 2.03,0.87 1.84,1.18 1.65,1.48 1.37,1.70 1.09,1.93 0.75,2.05 0.41,2.18 0.05,2.19 -0.30,2.20 -0.64,2.09 -0.98,1.98 -1.27,1.77 -1.57,1.56 -1.57,1.57 -1.57,1.57 -1.73,1.35 -1.90,1.14 -2.01,0.90 -2.12,0.66 -2.16,0.39 -2.21,0.13 -2.20,-0.13 -2.18,-0.40 -2.10,-0.65 -2.02,-0.91 -1.88,-1.14 -1.74,-1.36 -1.55,-1.55 -1.36,-1.74 -1.14,-1.88 -0.91,-2.02 -0.65,-2.10 -0.40,-2.18 -0.13,-2.20 0.13,-2.21 0.39,-2.16 0.66,-2.12 0.90,-2.01 1.14,-1.90 1.35,-1.73 1.57,-1.57 1.57,-1.57 L 1.57,-1.57 Z"></path></g><g transform="translate(1053.140287710779 223.2998493922032) rotate(0 0.00004999999998744897 0.00005000000010113581)" stroke="none"><path fill="#c92a2a" d="M 1.57,-1.57 Q 1.57,-1.57 1.77,-1.27 1.98,-0.98 2.09,-0.64 2.20,-0.29 2.19,0.05 2.18,0.41 2.05,0.75 1.93,1.09 1.70,1.37 1.48,1.65 1.18,1.84 0.87,2.04 0.52,2.12 0.18,2.21 -0.17,2.18 -0.53,2.15 -0.86,2.01 -1.19,1.87 -1.46,1.63 -1.73,1.39 -1.90,1.07 -2.08,0.76 -2.15,0.41 -2.21,0.05 -2.17,-0.29 -2.12,-0.65 -1.96,-0.97 -1.80,-1.29 -1.54,-1.54 -1.29,-1.80 -0.97,-1.96 -0.65,-2.12 -0.29,-2.17 0.06,-2.21 0.41,-2.15 0.76,-2.08 1.07,-1.90 1.39,-1.73 1.63,-1.46 1.87,-1.19 2.01,-0.86 2.15,-0.53 2.18,-0.17 2.21,0.18 2.12,0.52 2.03,0.87 1.84,1.18 1.65,1.48 1.37,1.70 1.09,1.93 0.75,2.05 0.41,2.18 0.05,2.19 -0.30,2.20 -0.64,2.09 -0.98,1.98 -1.27,1.77 -1.57,1.56 -1.57,1.57 -1.57,1.57 -1.73,1.35 -1.90,1.14 -2.01,0.90 -2.12,0.66 -2.16,0.39 -2.21,0.13 -2.20,-0.13 -2.18,-0.40 -2.10,-0.65 -2.02,-0.91 -1.88,-1.14 -1.74,-1.36 -1.55,-1.55 -1.36,-1.74 -1.14,-1.88 -0.91,-2.02 -0.65,-2.10 -0.40,-2.18 -0.13,-2.20 0.13,-2.21 0.39,-2.16 0.66,-2.12 0.90,-2.01 1.14,-1.90 1.35,-1.73 1.57,-1.57 1.57,-1.57 L 1.57,-1.57 Z"></path></g><g transform="translate(1053.1974305679219 222.49984939220303) rotate(0 0.00004999999998744897 0.00005000000010113581)" stroke="none"><path fill="#c92a2a" d="M 1.57,-1.57 Q 1.57,-1.57 1.77,-1.27 1.98,-0.98 2.09,-0.64 2.20,-0.29 2.19,0.05 2.18,0.41 2.05,0.75 1.93,1.09 1.70,1.37 1.48,1.65 1.18,1.84 0.87,2.04 0.52,2.12 0.18,2.21 -0.17,2.18 -0.53,2.15 -0.86,2.01 -1.19,1.87 -1.46,1.63 -1.73,1.39 -1.90,1.07 -2.08,0.76 -2.15,0.41 -2.21,0.05 -2.17,-0.29 -2.12,-0.65 -1.96,-0.97 -1.80,-1.29 -1.54,-1.54 -1.29,-1.80 -0.97,-1.96 -0.65,-2.12 -0.29,-2.17 0.06,-2.21 0.41,-2.15 0.76,-2.08 1.07,-1.90 1.39,-1.73 1.63,-1.46 1.87,-1.19 2.01,-0.86 2.15,-0.53 2.18,-0.17 2.21,0.18 2.12,0.52 2.03,0.87 1.84,1.18 1.65,1.48 1.37,1.70 1.09,1.93 0.75,2.05 0.41,2.18 0.05,2.19 -0.30,2.20 -0.64,2.09 -0.98,1.98 -1.27,1.77 -1.57,1.56 -1.57,1.57 -1.57,1.57 -1.73,1.35 -1.90,1.14 -2.01,0.90 -2.12,0.66 -2.16,0.39 -2.21,0.13 -2.20,-0.13 -2.18,-0.40 -2.10,-0.65 -2.02,-0.91 -1.88,-1.14 -1.74,-1.36 -1.55,-1.55 -1.36,-1.74 -1.14,-1.88 -0.91,-2.02 -0.65,-2.10 -0.40,-2.18 -0.13,-2.20 0.13,-2.21 0.39,-2.16 0.66,-2.12 0.90,-2.01 1.14,-1.90 1.35,-1.73 1.57,-1.57 1.57,-1.57 L 1.57,-1.57 Z"></path></g><g transform="translate(1053.540287710779 222.04270653506) rotate(0 0.00004999999998744897 0.00005000000010113581)" stroke="none"><path fill="#c92a2a" d="M 1.57,-1.57 Q 1.57,-1.57 1.77,-1.27 1.98,-0.98 2.09,-0.64 2.20,-0.29 2.19,0.05 2.18,0.41 2.05,0.75 1.93,1.09 1.70,1.37 1.48,1.65 1.18,1.84 0.87,2.04 0.52,2.12 0.18,2.21 -0.17,2.18 -0.53,2.15 -0.86,2.01 -1.19,1.87 -1.46,1.63 -1.73,1.39 -1.90,1.07 -2.08,0.76 -2.15,0.41 -2.21,0.05 -2.17,-0.29 -2.12,-0.65 -1.96,-0.97 -1.80,-1.29 -1.54,-1.54 -1.29,-1.80 -0.97,-1.96 -0.65,-2.12 -0.29,-2.17 0.06,-2.21 0.41,-2.15 0.76,-2.08 1.07,-1.90 1.39,-1.73 1.63,-1.46 1.87,-1.19 2.01,-0.86 2.15,-0.53 2.18,-0.17 2.21,0.18 2.12,0.52 2.03,0.87 1.84,1.18 1.65,1.48 1.37,1.70 1.09,1.93 0.75,2.05 0.41,2.18 0.05,2.19 -0.30,2.20 -0.64,2.09 -0.98,1.98 -1.27,1.77 -1.57,1.56 -1.57,1.57 -1.57,1.57 -1.73,1.35 -1.90,1.14 -2.01,0.90 -2.12,0.66 -2.16,0.39 -2.21,0.13 -2.20,-0.13 -2.18,-0.40 -2.10,-0.65 -2.02,-0.91 -1.88,-1.14 -1.74,-1.36 -1.55,-1.55 -1.36,-1.74 -1.14,-1.88 -0.91,-2.02 -0.65,-2.10 -0.40,-2.18 -0.13,-2.20 0.13,-2.21 0.39,-2.16 0.66,-2.12 0.90,-2.01 1.14,-1.90 1.35,-1.73 1.57,-1.57 1.57,-1.57 L 1.57,-1.57 Z"></path></g><g transform="translate(1054.054573425065 221.87127796363166) rotate(0 0.00004999999998744897 0.00005000000010113581)" stroke="none"><path fill="#c92a2a" d="M 1.57,-1.57 Q 1.57,-1.57 1.77,-1.27 1.98,-0.98 2.09,-0.64 2.20,-0.29 2.19,0.05 2.18,0.41 2.05,0.75 1.93,1.09 1.70,1.37 1.48,1.65 1.18,1.84 0.87,2.04 0.52,2.12 0.18,2.21 -0.17,2.18 -0.53,2.15 -0.86,2.01 -1.19,1.87 -1.46,1.63 -1.73,1.39 -1.90,1.07 -2.08,0.76 -2.15,0.41 -2.21,0.05 -2.17,-0.29 -2.12,-0.65 -1.96,-0.97 -1.80,-1.29 -1.54,-1.54 -1.29,-1.80 -0.97,-1.96 -0.65,-2.12 -0.29,-2.17 0.06,-2.21 0.41,-2.15 0.76,-2.08 1.07,-1.90 1.39,-1.73 1.63,-1.46 1.87,-1.19 2.01,-0.86 2.15,-0.53 2.18,-0.17 2.21,0.18 2.12,0.52 2.03,0.87 1.84,1.18 1.65,1.48 1.37,1.70 1.09,1.93 0.75,2.05 0.41,2.18 0.05,2.19 -0.30,2.20 -0.64,2.09 -0.98,1.98 -1.27,1.77 -1.57,1.56 -1.57,1.57 -1.57,1.57 -1.73,1.35 -1.90,1.14 -2.01,0.90 -2.12,0.66 -2.16,0.39 -2.21,0.13 -2.20,-0.13 -2.18,-0.40 -2.10,-0.65 -2.02,-0.91 -1.88,-1.14 -1.74,-1.36 -1.55,-1.55 -1.36,-1.74 -1.14,-1.88 -0.91,-2.02 -0.65,-2.10 -0.40,-2.18 -0.13,-2.20 0.13,-2.21 0.39,-2.16 0.66,-2.12 0.90,-2.01 1.14,-1.90 1.35,-1.73 1.57,-1.57 1.57,-1.57 L 1.57,-1.57 Z"></path></g><g transform="translate(1054.5117162822075 221.41413510648863) rotate(0 0.00004999999998744897 0.00005000000010113581)" stroke="none"><path fill="#c92a2a" d="M 1.57,-1.57 Q 1.57,-1.57 1.77,-1.27 1.98,-0.98 2.09,-0.64 2.20,-0.29 2.19,0.05 2.18,0.41 2.05,0.75 1.93,1.09 1.70,1.37 1.48,1.65 1.18,1.84 0.87,2.04 0.52,2.12 0.18,2.21 -0.17,2.18 -0.53,2.15 -0.86,2.01 -1.19,1.87 -1.46,1.63 -1.73,1.39 -1.90,1.07 -2.08,0.76 -2.15,0.41 -2.21,0.05 -2.17,-0.29 -2.12,-0.65 -1.96,-0.97 -1.80,-1.29 -1.54,-1.54 -1.29,-1.80 -0.97,-1.96 -0.65,-2.12 -0.29,-2.17 0.06,-2.21 0.41,-2.15 0.76,-2.08 1.07,-1.90 1.39,-1.73 1.63,-1.46 1.87,-1.19 2.01,-0.86 2.15,-0.53 2.18,-0.17 2.21,0.18 2.12,0.52 2.03,0.87 1.84,1.18 1.65,1.48 1.37,1.70 1.09,1.93 0.75,2.05 0.41,2.18 0.05,2.19 -0.30,2.20 -0.64,2.09 -0.98,1.98 -1.27,1.77 -1.57,1.56 -1.57,1.57 -1.57,1.57 -1.73,1.35 -1.90,1.14 -2.01,0.90 -2.12,0.66 -2.16,0.39 -2.21,0.13 -2.20,-0.13 -2.18,-0.40 -2.10,-0.65 -2.02,-0.91 -1.88,-1.14 -1.74,-1.36 -1.55,-1.55 -1.36,-1.74 -1.14,-1.88 -0.91,-2.02 -0.65,-2.10 -0.40,-2.18 -0.13,-2.20 0.13,-2.21 0.39,-2.16 0.66,-2.12 0.90,-2.01 1.14,-1.90 1.35,-1.73 1.57,-1.57 1.57,-1.57 L 1.57,-1.57 Z"></path></g><g transform="translate(1053.940287710779 221.2998493922032) rotate(0 0.00004999999998744897 0.00005000000010113581)" stroke="none"><path fill="#c92a2a" d="M 1.57,-1.57 Q 1.57,-1.57 1.77,-1.27 1.98,-0.98 2.09,-0.64 2.20,-0.29 2.19,0.05 2.18,0.41 2.05,0.75 1.93,1.09 1.70,1.37 1.48,1.65 1.18,1.84 0.87,2.04 0.52,2.12 0.18,2.21 -0.17,2.18 -0.53,2.15 -0.86,2.01 -1.19,1.87 -1.46,1.63 -1.73,1.39 -1.90,1.07 -2.08,0.76 -2.15,0.41 -2.21,0.05 -2.17,-0.29 -2.12,-0.65 -1.96,-0.97 -1.80,-1.29 -1.54,-1.54 -1.29,-1.80 -0.97,-1.96 -0.65,-2.12 -0.29,-2.17 0.06,-2.21 0.41,-2.15 0.76,-2.08 1.07,-1.90 1.39,-1.73 1.63,-1.46 1.87,-1.19 2.01,-0.86 2.15,-0.53 2.18,-0.17 2.21,0.18 2.12,0.52 2.03,0.87 1.84,1.18 1.65,1.48 1.37,1.70 1.09,1.93 0.75,2.05 0.41,2.18 0.05,2.19 -0.30,2.20 -0.64,2.09 -0.98,1.98 -1.27,1.77 -1.57,1.56 -1.57,1.57 -1.57,1.57 -1.73,1.35 -1.90,1.14 -2.01,0.90 -2.12,0.66 -2.16,0.39 -2.21,0.13 -2.20,-0.13 -2.18,-0.40 -2.10,-0.65 -2.02,-0.91 -1.88,-1.14 -1.74,-1.36 -1.55,-1.55 -1.36,-1.74 -1.14,-1.88 -0.91,-2.02 -0.65,-2.10 -0.40,-2.18 -0.13,-2.20 0.13,-2.21 0.39,-2.16 0.66,-2.12 0.90,-2.01 1.14,-1.90 1.35,-1.73 1.57,-1.57 1.57,-1.57 L 1.57,-1.57 Z"></path></g><g transform="translate(1055.1974305679219 221.41413510648863) rotate(0 0.00004999999998744897 0.00005000000010113581)" stroke="none"><path fill="#c92a2a" d="M 1.57,-1.57 Q 1.57,-1.57 1.77,-1.27 1.98,-0.98 2.09,-0.64 2.20,-0.29 2.19,0.05 2.18,0.41 2.05,0.75 1.93,1.09 1.70,1.37 1.48,1.65 1.18,1.84 0.87,2.04 0.52,2.12 0.18,2.21 -0.17,2.18 -0.53,2.15 -0.86,2.01 -1.19,1.87 -1.46,1.63 -1.73,1.39 -1.90,1.07 -2.08,0.76 -2.15,0.41 -2.21,0.05 -2.17,-0.29 -2.12,-0.65 -1.96,-0.97 -1.80,-1.29 -1.54,-1.54 -1.29,-1.80 -0.97,-1.96 -0.65,-2.12 -0.29,-2.17 0.06,-2.21 0.41,-2.15 0.76,-2.08 1.07,-1.90 1.39,-1.73 1.63,-1.46 1.87,-1.19 2.01,-0.86 2.15,-0.53 2.18,-0.17 2.21,0.18 2.12,0.52 2.03,0.87 1.84,1.18 1.65,1.48 1.37,1.70 1.09,1.93 0.75,2.05 0.41,2.18 0.05,2.19 -0.30,2.20 -0.64,2.09 -0.98,1.98 -1.27,1.77 -1.57,1.56 -1.57,1.57 -1.57,1.57 -1.73,1.35 -1.90,1.14 -2.01,0.90 -2.12,0.66 -2.16,0.39 -2.21,0.13 -2.20,-0.13 -2.18,-0.40 -2.10,-0.65 -2.02,-0.91 -1.88,-1.14 -1.74,-1.36 -1.55,-1.55 -1.36,-1.74 -1.14,-1.88 -0.91,-2.02 -0.65,-2.10 -0.40,-2.18 -0.13,-2.20 0.13,-2.21 0.39,-2.16 0.66,-2.12 0.90,-2.01 1.14,-1.90 1.35,-1.73 1.57,-1.57 1.57,-1.57 L 1.57,-1.57 Z"></path></g><g transform="translate(1055.1974305679219 222.38556367791716) rotate(0 0.00004999999998744897 0.00005000000010113581)" stroke="none"><path fill="#c92a2a" d="M 1.57,-1.57 Q 1.57,-1.57 1.77,-1.27 1.98,-0.98 2.09,-0.64 2.20,-0.29 2.19,0.05 2.18,0.41 2.05,0.75 1.93,1.09 1.70,1.37 1.48,1.65 1.18,1.84 0.87,2.04 0.52,2.12 0.18,2.21 -0.17,2.18 -0.53,2.15 -0.86,2.01 -1.19,1.87 -1.46,1.63 -1.73,1.39 -1.90,1.07 -2.08,0.76 -2.15,0.41 -2.21,0.05 -2.17,-0.29 -2.12,-0.65 -1.96,-0.97 -1.80,-1.29 -1.54,-1.54 -1.29,-1.80 -0.97,-1.96 -0.65,-2.12 -0.29,-2.17 0.06,-2.21 0.41,-2.15 0.76,-2.08 1.07,-1.90 1.39,-1.73 1.63,-1.46 1.87,-1.19 2.01,-0.86 2.15,-0.53 2.18,-0.17 2.21,0.18 2.12,0.52 2.03,0.87 1.84,1.18 1.65,1.48 1.37,1.70 1.09,1.93 0.75,2.05 0.41,2.18 0.05,2.19 -0.30,2.20 -0.64,2.09 -0.98,1.98 -1.27,1.77 -1.57,1.56 -1.57,1.57 -1.57,1.57 -1.73,1.35 -1.90,1.14 -2.01,0.90 -2.12,0.66 -2.16,0.39 -2.21,0.13 -2.20,-0.13 -2.18,-0.40 -2.10,-0.65 -2.02,-0.91 -1.88,-1.14 -1.74,-1.36 -1.55,-1.55 -1.36,-1.74 -1.14,-1.88 -0.91,-2.02 -0.65,-2.10 -0.40,-2.18 -0.13,-2.20 0.13,-2.21 0.39,-2.16 0.66,-2.12 0.90,-2.01 1.14,-1.90 1.35,-1.73 1.57,-1.57 1.57,-1.57 L 1.57,-1.57 Z"></path></g><g transform="translate(1054.9688591393506 223.07127796363147) rotate(0 0.00004999999998744897 0.00005000000010113581)" stroke="none"><path fill="#c92a2a" d="M 1.57,-1.57 Q 1.57,-1.57 1.77,-1.27 1.98,-0.98 2.09,-0.64 2.20,-0.29 2.19,0.05 2.18,0.41 2.05,0.75 1.93,1.09 1.70,1.37 1.48,1.65 1.18,1.84 0.87,2.04 0.52,2.12 0.18,2.21 -0.17,2.18 -0.53,2.15 -0.86,2.01 -1.19,1.87 -1.46,1.63 -1.73,1.39 -1.90,1.07 -2.08,0.76 -2.15,0.41 -2.21,0.05 -2.17,-0.29 -2.12,-0.65 -1.96,-0.97 -1.80,-1.29 -1.54,-1.54 -1.29,-1.80 -0.97,-1.96 -0.65,-2.12 -0.29,-2.17 0.06,-2.21 0.41,-2.15 0.76,-2.08 1.07,-1.90 1.39,-1.73 1.63,-1.46 1.87,-1.19 2.01,-0.86 2.15,-0.53 2.18,-0.17 2.21,0.18 2.12,0.52 2.03,0.87 1.84,1.18 1.65,1.48 1.37,1.70 1.09,1.93 0.75,2.05 0.41,2.18 0.05,2.19 -0.30,2.20 -0.64,2.09 -0.98,1.98 -1.27,1.77 -1.57,1.56 -1.57,1.57 -1.57,1.57 -1.73,1.35 -1.90,1.14 -2.01,0.90 -2.12,0.66 -2.16,0.39 -2.21,0.13 -2.20,-0.13 -2.18,-0.40 -2.10,-0.65 -2.02,-0.91 -1.88,-1.14 -1.74,-1.36 -1.55,-1.55 -1.36,-1.74 -1.14,-1.88 -0.91,-2.02 -0.65,-2.10 -0.40,-2.18 -0.13,-2.20 0.13,-2.21 0.39,-2.16 0.66,-2.12 0.90,-2.01 1.14,-1.90 1.35,-1.73 1.57,-1.57 1.57,-1.57 L 1.57,-1.57 Z"></path></g><g transform="translate(1054.7402877107793 223.5284208207745) rotate(0 0.00004999999998744897 0.00005000000010113581)" stroke="none"><path fill="#c92a2a" d="M 1.57,-1.57 Q 1.57,-1.57 1.77,-1.27 1.98,-0.98 2.09,-0.64 2.20,-0.29 2.19,0.05 2.18,0.41 2.05,0.75 1.93,1.09 1.70,1.37 1.48,1.65 1.18,1.84 0.87,2.04 0.52,2.12 0.18,2.21 -0.17,2.18 -0.53,2.15 -0.86,2.01 -1.19,1.87 -1.46,1.63 -1.73,1.39 -1.90,1.07 -2.08,0.76 -2.15,0.41 -2.21,0.05 -2.17,-0.29 -2.12,-0.65 -1.96,-0.97 -1.80,-1.29 -1.54,-1.54 -1.29,-1.80 -0.97,-1.96 -0.65,-2.12 -0.29,-2.17 0.06,-2.21 0.41,-2.15 0.76,-2.08 1.07,-1.90 1.39,-1.73 1.63,-1.46 1.87,-1.19 2.01,-0.86 2.15,-0.53 2.18,-0.17 2.21,0.18 2.12,0.52 2.03,0.87 1.84,1.18 1.65,1.48 1.37,1.70 1.09,1.93 0.75,2.05 0.41,2.18 0.05,2.19 -0.30,2.20 -0.64,2.09 -0.98,1.98 -1.27,1.77 -1.57,1.56 -1.57,1.57 -1.57,1.57 -1.73,1.35 -1.90,1.14 -2.01,0.90 -2.12,0.66 -2.16,0.39 -2.21,0.13 -2.20,-0.13 -2.18,-0.40 -2.10,-0.65 -2.02,-0.91 -1.88,-1.14 -1.74,-1.36 -1.55,-1.55 -1.36,-1.74 -1.14,-1.88 -0.91,-2.02 -0.65,-2.10 -0.40,-2.18 -0.13,-2.20 0.13,-2.21 0.39,-2.16 0.66,-2.12 0.90,-2.01 1.14,-1.90 1.35,-1.73 1.57,-1.57 1.57,-1.57 L 1.57,-1.57 Z"></path></g><g transform="translate(1055.3117162822077 223.47127796363156) rotate(0 0.00004999999998744897 0.00005000000010113581)" stroke="none"><path fill="#c92a2a" d="M 1.57,-1.57 Q 1.57,-1.57 1.77,-1.27 1.98,-0.98 2.09,-0.64 2.20,-0.29 2.19,0.05 2.18,0.41 2.05,0.75 1.93,1.09 1.70,1.37 1.48,1.65 1.18,1.84 0.87,2.04 0.52,2.12 0.18,2.21 -0.17,2.18 -0.53,2.15 -0.86,2.01 -1.19,1.87 -1.46,1.63 -1.73,1.39 -1.90,1.07 -2.08,0.76 -2.15,0.41 -2.21,0.05 -2.17,-0.29 -2.12,-0.65 -1.96,-0.97 -1.80,-1.29 -1.54,-1.54 -1.29,-1.80 -0.97,-1.96 -0.65,-2.12 -0.29,-2.17 0.06,-2.21 0.41,-2.15 0.76,-2.08 1.07,-1.90 1.39,-1.73 1.63,-1.46 1.87,-1.19 2.01,-0.86 2.15,-0.53 2.18,-0.17 2.21,0.18 2.12,0.52 2.03,0.87 1.84,1.18 1.65,1.48 1.37,1.70 1.09,1.93 0.75,2.05 0.41,2.18 0.05,2.19 -0.30,2.20 -0.64,2.09 -0.98,1.98 -1.27,1.77 -1.57,1.56 -1.57,1.57 -1.57,1.57 -1.73,1.35 -1.90,1.14 -2.01,0.90 -2.12,0.66 -2.16,0.39 -2.21,0.13 -2.20,-0.13 -2.18,-0.40 -2.10,-0.65 -2.02,-0.91 -1.88,-1.14 -1.74,-1.36 -1.55,-1.55 -1.36,-1.74 -1.14,-1.88 -0.91,-2.02 -0.65,-2.10 -0.40,-2.18 -0.13,-2.20 0.13,-2.21 0.39,-2.16 0.66,-2.12 0.90,-2.01 1.14,-1.90 1.35,-1.73 1.57,-1.57 1.57,-1.57 L 1.57,-1.57 Z"></path></g><g transform="translate(1064.644543603919 177.5718417306016) rotate(0 16.5858154296875 25.91533660888672)"><text x="0" y="36.830673217773416" font-family="Virgil, Segoe UI Emoji" font-size="41.46453857421874px" fill="#c92a2a" text-anchor="start" style="white-space: pre;" direction="ltr">M</text></g><g stroke-linecap="round" transform="translate(-56.747962227070616 -22.491547856648594) rotate(335.3231368296629 730.8985488878161 355.7865197255744)"><path d="M731 0 C904.36 84.45, 1077.71 168.9, 1461.8 356 M731 0 C913.35 88.83, 1095.7 177.66, 1461.8 356 M1461.8 356 C1203.49 481.68, 945.18 607.36, 731 711.57 M1461.8 356 C1192.55 487, 923.3 618.01, 731 711.57 M731 711.57 C562.83 629.77, 394.65 547.97, 0 356 M731 711.57 C446.35 573.11, 161.7 434.65, 0 356 M0 356 C196.44 260.33, 392.89 164.66, 731 0 M0 356 C228.59 244.68, 457.17 133.35, 731 0" stroke="#000000" stroke-width="4" fill="none"></path></g></svg>